{
    "asset" : {
        "generator" : "Khronos glTF Blender I/O v1.8.19",
        "version" : "2.0"
    },
    "scene" : 0,
    "scenes" : [
        {
            "name" : "Scene",
            "nodes" : [
                0,
                1,
                2
            ]
        }
    ],
    "nodes" : [
        {
            "mesh" : 0,
            "name" : "Cube.001"
        },
        {
            "mesh" : 1,
            "name" : "Cube"
        },
        {
            "mesh" : 2,
            "name" : "Cube.002",
            "scale" : [
                0.43283212184906006,
                0.43283212184906006,
                0.43283212184906006
            ],
            "translation" : [
                3.7603325843811035,
                0,
                -2.789924383163452
            ]
        }
    ],
    "meshes" : [
        {
            "name" : "Cube.001",
            "primitives" : [
                {
                    "attributes" : {
                        "POSITION" : 0,
                        "NORMAL" : 1,
                        "TEXCOORD_0" : 2
                    },
                    "indices" : 3
                }
            ]
        },
        {
            "name" : "Cube.003",
            "primitives" : [
                {
                    "attributes" : {
                        "POSITION" : 4,
                        "NORMAL" : 5,
                        "TEXCOORD_0" : 6
                    },
                    "indices" : 7
                }
            ]
        },
        {
            "name" : "Cube.005",
            "primitives" : [
                {
                    "attributes" : {
                        "POSITION" : 8,
                        "NORMAL" : 9,
                        "TEXCOORD_0" : 10
                    },
                    "indices" : 11
                }
            ]
        }
    ],
    "accessors" : [
        {
            "bufferView" : 0,
            "componentType" : 5126,
            "count" : 435,
            "max" : [
                4.589545249938965,
                3.642413377761841,
                5.478885173797607
            ],
            "min" : [
                -6.428173542022705,
                1.0854182243347168,
                -6.138675212860107
            ],
            "type" : "VEC3"
        },
        {
            "bufferView" : 1,
            "componentType" : 5126,
            "count" : 435,
            "type" : "VEC3"
        },
        {
            "bufferView" : 2,
            "componentType" : 5126,
            "count" : 435,
            "type" : "VEC2"
        },
        {
            "bufferView" : 3,
            "componentType" : 5123,
            "count" : 642,
            "type" : "SCALAR"
        },
        {
            "bufferView" : 4,
            "componentType" : 5126,
            "count" : 135,
            "max" : [
                8.580440521240234,
                0.9303921461105347,
                3.808039426803589
            ],
            "min" : [
                -6.87703275680542,
                -0.8759446740150452,
                -9.079224586486816
            ],
            "type" : "VEC3"
        },
        {
            "bufferView" : 5,
            "componentType" : 5126,
            "count" : 135,
            "type" : "VEC3"
        },
        {
            "bufferView" : 6,
            "componentType" : 5126,
            "count" : 135,
            "type" : "VEC2"
        },
        {
            "bufferView" : 7,
            "componentType" : 5123,
            "count" : 189,
            "type" : "SCALAR"
        },
        {
            "bufferView" : 8,
            "componentType" : 5126,
            "count" : 395,
            "max" : [
                22.037429809570312,
                5.078695774078369,
                7.129354476928711
            ],
            "min" : [
                -24.144207000732422,
                -3.2544474601745605,
                -10.641434669494629
            ],
            "type" : "VEC3"
        },
        {
            "bufferView" : 9,
            "componentType" : 5126,
            "count" : 395,
            "type" : "VEC3"
        },
        {
            "bufferView" : 10,
            "componentType" : 5126,
            "count" : 395,
            "type" : "VEC2"
        },
        {
            "bufferView" : 11,
            "componentType" : 5123,
            "count" : 588,
            "type" : "SCALAR"
        }
    ],
    "bufferViews" : [
        {
            "buffer" : 0,
            "byteLength" : 5220,
            "byteOffset" : 0
        },
        {
            "buffer" : 0,
            "byteLength" : 5220,
            "byteOffset" : 5220
        },
        {
            "buffer" : 0,
            "byteLength" : 3480,
            "byteOffset" : 10440
        },
        {
            "buffer" : 0,
            "byteLength" : 1284,
            "byteOffset" : 13920
        },
        {
            "buffer" : 0,
            "byteLength" : 1620,
            "byteOffset" : 15204
        },
        {
            "buffer" : 0,
            "byteLength" : 1620,
            "byteOffset" : 16824
        },
        {
            "buffer" : 0,
            "byteLength" : 1080,
            "byteOffset" : 18444
        },
        {
            "buffer" : 0,
            "byteLength" : 378,
            "byteOffset" : 19524
        },
        {
            "buffer" : 0,
            "byteLength" : 4740,
            "byteOffset" : 19904
        },
        {
            "buffer" : 0,
            "byteLength" : 4740,
            "byteOffset" : 24644
        },
        {
            "buffer" : 0,
            "byteLength" : 3160,
            "byteOffset" : 29384
        },
        {
            "buffer" : 0,
            "byteLength" : 1176,
            "byteOffset" : 32544
        }
    ],
    "buffers" : [
        {
            "byteLength" : 33720,
            "uri" : "data:application/octet-stream;base64,"
        }
    ]
}
